<?xml version="1.0" encoding="UTF-8"?>
<svg width="48" height="48" version="1.1" viewBox="0 0 48 48" xml:space="preserve" xmlns="http://www.w3.org/2000/svg" xmlns:cc="http://creativecommons.org/ns#" xmlns:dc="http://purl.org/dc/elements/1.1/" xmlns:rdf="http://www.w3.org/1999/02/22-rdf-syntax-ns#"><metadata><rdf:RDF><cc:Work rdf:about=""><dc:format>image/svg+xml</dc:format><dc:type rdf:resource="http://purl.org/dc/dcmitype/StillImage"/><dc:title/></cc:Work></rdf:RDF></metadata><g transform="matrix(1.3333 0 0 -1.3333 -59.799 278.76)"><g transform="matrix(.31718 0 0 -.31718 0 594)"><g transform="matrix(3.1528 0 0 -3.1528 -121.15 1928.2)"><g transform="translate(3.2954 -3.1521)"><path d="m94.834 216.5c1.3804-5.5633-2.0993-11.938 1.0209-16.678 4.6629-0.6712 9.5024-0.23935 14.235-1.0492 6.6124 0.83337 1.4125 9.7969 3.1885 13.991 0.0924 6.5828 0.0924 6.5828-7.9733 5.8684-2.7573 0.0135-7.3494 0.4521-10.113 0.0717" fill="none" stroke="#000" stroke-linecap="round" stroke-linejoin="round" stroke-miterlimit="10" stroke-width="1.2692"/></g><g transform="translate(3.2954 -3.1521)"><path d="m95.545 218.68c-3.5174 0.64627-8.1079 2.2523-10.946 6.497" fill="none" stroke="#000" stroke-linecap="round" stroke-linejoin="round" stroke-miterlimit="10" stroke-width="1.2692"/></g><g transform="translate(3.2954 -3.1521)"><path d="m84.599 225.18c1.1068-5.7843-1.8591-17.921-0.13904-21.321 1.9963-1.8079 6.9818-2.6151 9.0503-4.3279" fill="none" stroke="#000" stroke-linecap="round" stroke-linejoin="round" stroke-miterlimit="10" stroke-width="1.2692"/></g><g transform="translate(3.2954 -3.1521)"><path d="m84.599 225.18c6.2496 0.63101 10.631 0.79771 15.952 0.84042" fill="none" stroke="#000" stroke-linecap="round" stroke-linejoin="round" stroke-miterlimit="10" stroke-width="1.2692"/></g><g transform="translate(3.2954 -3.1521)"><path d="m100.55 226.02c3.1769-2.7145 9.0908-4.9386 12.819-6.6744" fill="none" stroke="#000" stroke-linecap="round" stroke-linejoin="round" stroke-miterlimit="10" stroke-width="1.2692"/></g></g></g></g></svg>
