<?xml version="1.0" encoding="UTF-8" standalone="no"?>
<svg
   xmlns:dc="http://purl.org/dc/elements/1.1/"
   xmlns:cc="http://creativecommons.org/ns#"
   xmlns:rdf="http://www.w3.org/1999/02/22-rdf-syntax-ns#"
   xmlns:svg="http://www.w3.org/2000/svg"
   xmlns="http://www.w3.org/2000/svg"
   xmlns:sodipodi="http://sodipodi.sourceforge.net/DTD/sodipodi-0.dtd"
   xmlns:inkscape="http://www.inkscape.org/namespaces/inkscape"
   version="1.1"
   id="svg849"
   xml:space="preserve"
   width="48"
   height="48"
   viewBox="0 0 48.000001 48"
   sodipodi:docname="icons.svg"
   inkscape:version="1.0.2 (e86c8708, 2021-01-15)"><metadata
     id="metadata855"><rdf:RDF><cc:Work
         rdf:about=""><dc:format>image/svg+xml</dc:format><dc:type
           rdf:resource="http://purl.org/dc/dcmitype/StillImage" /><dc:title></dc:title></cc:Work></rdf:RDF></metadata><defs
     id="defs853" /><sodipodi:namedview
     pagecolor="#ffffff"
     bordercolor="#666666"
     borderopacity="1"
     objecttolerance="10"
     gridtolerance="10"
     guidetolerance="10"
     inkscape:pageopacity="0"
     inkscape:pageshadow="2"
     inkscape:window-width="1743"
     inkscape:window-height="1208"
     id="namedview851"
     showgrid="false"
     inkscape:zoom="1.4803883"
     inkscape:cx="267.1938"
     inkscape:cy="57.257371"
     inkscape:window-x="608"
     inkscape:window-y="125"
     inkscape:window-maximized="0"
     inkscape:current-layer="g877"
     fit-margin-top="0"
     fit-margin-left="0"
     fit-margin-right="0"
     fit-margin-bottom="0" /><g
     id="g857"
     inkscape:groupmode="layer"
     inkscape:label="Quick sheets (1)"
     transform="matrix(1.3333333,0,0,-1.3333333,-59.798812,278.7578)"><g
       id="g859"
       transform="matrix(0.31718062,0,0,-0.31718062,0,594)"><g
         id="g861"><g
           id="g863" /></g><g
         id="g877"
         transform="matrix(3.1527784,0,0,-3.1527784,-121.14892,1928.1912)"><g
           id="g885"
           transform="translate(-21.843876,55.602592)"><g
             id="g887"><path
               d="m 80.883705,274.32169 0.05045,0.0346 -0.078,-0.005 -0.06915,0.0628 0.0047,0.0554 -0.07602,-0.023 -0.02518,-0.12247 -0.04221,0.0248 -0.01636,0.1337 -0.03386,0.007 -0.0055,-0.001 -0.08648,-0.009 -0.08254,0.0336 -0.03568,-0.0481 -0.04402,-0.0709 -0.035,-0.0122 -0.02255,-10e-4 -0.06173,0.004 -0.06852,-0.0284 -0.03564,-0.038 -0.08168,0.006 -0.04322,0.01 -0.04453,0.009 -0.111267,-0.0542 -0.08109,-0.0875 -0.0666,-0.041 -0.08095,-0.0264 -0.02619,0.01 -0.06705,-0.0473 -0.117363,-0.0306 -0.111046,-0.0336 -0.08977,-0.0619 -0.08405,-0.0285 -0.05678,-0.0289 -0.0067,-0.0894 -0.07075,-0.0656 -0.154327,-0.0978 -0.141076,-0.0683 -0.08105,0.11544 -0.02509,-0.0427 -0.02859,-0.13211 -0.0946,-0.0496 -0.09398,-0.10819 -0.07677,-0.12014 -0.0935,-0.0703 -0.05508,-0.0932 -0.0093,-0.17441 -0.08401,-0.14093 -0.188957,-0.12002 -0.11039,-0.0878 -0.08459,-0.0638 -0.0761,-0.15619 -0.120751,-0.16217 -0.157967,-0.12165 -0.05169,-0.17956 -0.03749,-0.14966 -0.03468,-0.1752 -0.104981,-0.2403 -0.09561,-0.20025 -0.150376,-0.23096 -0.06296,-0.24631 -0.05171,-0.18127 -0.04244,-0.14847 -0.0471,-0.086 -0.107376,-0.1311 -0.02798,-0.34537 -0.05473,-0.35562 -0.163422,-0.29791 -0.06462,-0.2742 -0.08646,-0.25287 -0.05174,-0.3118 -0.05138,-0.24057 -0.04847,-0.14279 -0.04308,-0.2349 -0.05468,-0.22824 -0.02108,-0.1954 -0.02323,-0.0205 0.01624,-0.13272 0.04931,-0.40131 0.01653,-0.33306 -0.0656,-0.25608 -0.006,-0.2771 -0.03818,-0.21597 -0.003,-0.24048 -0.03174,-0.2796 -0.03728,-0.20987 0.03615,-0.20145 0.08072,-0.17453 0.0143,-0.18414 0.03773,-0.15405 0.104629,-0.11392 0.0027,-0.1493 -0.01149,-0.13919 0.08779,-0.0969 0.02654,-0.1872 0.06404,-0.16888 0.09278,-0.17654 0.02598,-0.21042 0.05835,-0.19486 0.08925,-0.17199 0.06024,-0.1709 0.06697,-0.0781 0.117119,-0.008 0.08619,-0.16708 0.05837,-0.22934 0.05739,-0.13538 0.07063,-0.12469 0.08586,-0.14084 0.100227,-0.0849 0.01328,-0.1583 0.100891,0.0232 0.07359,-0.0855 0.01,-0.32733 0.152465,-0.14716 0.13514,-0.20297 0.171425,-0.0913 0.145881,-1.5e-4 0.16021,-0.10611 0.133835,-0.0878 0.137428,-0.0725 0.135094,-0.006 0.165993,-0.10226 0.171142,-0.22318 0.137184,-0.0872 0.145119,-0.10922 0.232925,-0.0817 0.20736,-0.053 0.205864,0.0957 0.19741,-0.0908 0.1623,-0.25818 0.213662,-0.084 0.214042,-0.12115 0.208542,-0.0934 0.204308,-0.0847 0.219116,-0.10889 0.208488,-0.0859 0.19487,-0.0783 0.187165,-0.10947 0.197784,-0.0844 0.22905,-0.01 0.265152,-10e-4 0.236007,-0.18112 0.270592,-0.16989 0.27195,-0.0675 0.228027,-0.0852 0.223214,-0.0482 0.216941,-0.0431 0.246735,-0.0428 0.199814,-0.0505 0.269249,-0.0793 0.271339,-0.0591 0.237961,-0.0592 0.248085,-0.02 0.288704,-0.0164 0.330788,-0.0535 0.281425,0.007 0.157532,-0.0259 0.179558,0.008 0.234886,-0.0229 0.259041,-0.0999 0.23899,-0.005 0.220101,0.13953 0.256859,0.0226 0.180709,0.008 0.107941,-0.002 0.152969,-0.0375 0.198327,0.0226 0.207382,0.0999 0.180023,0.0403 0.168411,0.0326 0.160179,-0.007 0.164818,0.12232 0.17527,0.0363 0.07388,-0.0845 0.140915,-0.0192 0.195534,0.0191 0.17131,0.0337 0.117753,0.036 0.122062,2.7e-4 0.137764,0.0993 0.109955,0.17947 0.115944,0.0863 0.131439,-0.0404 0.07783,0.006 0.06126,0.10199 0.107917,0.0972 0.129624,0.0337 0.113525,0.0515 0.140801,0.0823 0.09745,0.10205 0.114288,0.0584 0.08025,-0.0165 0.13269,0.0699 0.08434,0.2211 0.05926,0.1701 0.106857,0.12857 0.109909,0.14707 0.113983,0.27536 0.133415,0.17956 0.124436,-0.0338 0.06912,0.0943 0.07022,0.15481 0.08237,0.19071 0.08138,0.22513 0.113563,0.21951 0.08931,0.19064 0.07891,0.23072 0.115341,0.27224 0.09241,0.25791 0.151291,0.19711 0.132157,0.0177 0.04234,0.20777 -0.0613,0.35327 0.07911,0.23135 0.07016,0.22629 0.01377,0.21683 0.05206,0.16751 0.02106,0.14904 -0.01052,0.26484 0.02379,0.2564 0.02971,0.15296 0.02638,0.16244 -0.0032,0.12818 -0.0045,0.18142 0.06379,0.1995 0.04103,0.18405 -0.06916,0.16385 -0.01328,0.13611 -0.07775,0.1318 -0.0095,0.10037 0.0043,0.18311 0.08832,-0.0217 0.01498,0.11524 -0.118706,0.31265 -0.06266,0.2706 -0.05658,0.12167 0.003,0.15479 -0.04991,0.29654 -0.07044,0.24872 -0.06258,0.20303 -0.05808,0.21683 -0.06146,0.20019 -0.100494,0.0934 -0.146813,0.15515 -0.0644,0.26049 -0.01949,0.19904 -0.076,0.12064 -0.07795,0.14294 -0.112023,0.37891 -0.07558,0.2474 -0.16645,-0.16272 -0.07545,0.10727 0.02522,0.14731 -0.07027,0.10379 -0.04436,0.0325 -0.07921,0.12888 -0.06014,0.19635 -0.09603,0.1756 -0.126518,0.15445 -0.06853,0.12762 -0.08845,0.10706 -0.113366,0.1603 -0.101059,0.12561 0.01957,0.0499 -0.02809,0.0436 -0.07275,0.0894 -0.09306,0.15115 -0.04919,0.0421 -0.03779,0.0876 -0.03138,-0.0638 -0.07359,0.071 -0.140732,0.31479 -0.05316,0.1825 -0.05122,0.0792 -0.04761,0.0885 -0.03191,0.0594 -0.08669,-0.003 -0.114891,0.086 -0.03742,0.10272 -0.09486,0.0125 -0.04308,0.0931 -0.01962,0.10626 -0.117165,0.0565 -0.05756,0.0853 -0.02126,0.12921 -0.05725,0.0647 -0.081,0.0436 -0.02932,0.0525 -0.01661,0.1105 -0.05289,0.0915 -0.12944,0.0198 -0.06899,0.0839 -0.09444,0.12229 -0.03752,0.0361 -0.191642,-0.0602 -0.116806,0.0793 0.09556,0.059 -0.02579,0.081 -0.0704,0.0537 -0.06248,0.13092 -0.0805,0.085 -0.0652,-0.017 -0.110146,0.005 -0.141494,0.0495 -0.111367,0.0243 -0.01164,0.0523 -0.09703,0.0253 -0.116378,0.058 -0.02673,0.0781 -0.07815,0.0266 -0.07507,0.0194 -0.06631,-0.0136 -0.07783,0.0522 -0.01491,0.0991 -0.06049,-0.0383 -0.09895,0.0479 -0.0835,0.0416 -0.06114,0.0312 -0.03928,0.0215 -0.116386,0.0253 -0.06819,0.0681 -0.03619,-0.004 -0.0609,0.0185 -0.05536,0.063 -0.06448,0.0375 -0.01427,0.0244 -0.04595,0.0243 0.0375,-0.006 0.02356,0.0233 -0.06837,-0.009 -0.04337,0.061 -0.09249,-0.097 -0.104424,-0.006 -0.09792,0.10913 -0.143082,0.0559 -0.05475,0.0749 -0.05412,0.006 -0.04293,-0.0426 -0.105515,-0.0184 -0.09122,-0.19227 -0.06155,0.0595 -0.02198,0.22528 -0.0724,-0.005 -0.06421,0.0724 -0.09938,0.0108 -0.06699,-0.0836 -0.111214,-0.0151 -0.111313,-0.008 -0.05199,0.0333 -0.09959,-0.0288 -0.09487,-0.0414 -0.09211,-0.0403 -0.114998,-0.069 -0.182861,-0.0337 -0.141968,0.006 -0.113091,-0.0546 -0.10318,-0.0256 -0.07746,0.0466 -0.129524,-0.0183 -0.10746,-0.19284 -0.132446,-0.0992 -0.148537,-0.0698 -0.07674,-0.12491 -0.0059,-0.0672 -0.05348,0.0255 -0.164421,-0.0625 -0.204208,-0.0163 -0.146958,-0.0534 -0.105316,0.17765 -0.128616,-0.0342 -0.09141,-0.30802 -0.141441,-0.12878 -0.11882,-0.0844 -0.02151,-0.0158 -0.07973,-0.0652 -0.08276,-0.0548 -0.0152,0.0645 -0.03153,0.0273 -0.09959,-0.0379 -0.08299,0.002 0.0095,0.0474 -0.04687,-0.0601 -0.01955,-0.10782 0.06654,0.0406 0.06444,-0.0117 -0.0989,0.0399 0.01107,-0.07 0.0084,-0.10687 -0.01275,0.0715 -7.33e-4,0.0727 -0.0092,0.0162 -0.02708,-0.017 0.0058,-0.002 0.03233,0.0294 0.129357,0.008 v 0"
               style="fill:none;stroke:#000000;stroke-width:1.26923;stroke-linecap:round;stroke-linejoin:round;stroke-miterlimit:10;stroke-dasharray:none;stroke-opacity:1"
               id="path889" /></g></g><g
           id="g891"
           transform="translate(44.69109,3.1948764)"><g
             id="g893"><path
               id="path895"
               style="fill:#000000;fill-opacity:1;fill-rule:nonzero;stroke:none"
               d="m 58.376789,192.12239 c 5.368451,-0.63551 10.535336,3.51333 12.143385,8.45549 0.926262,4.28862 -1.116701,8.55133 -3.146485,12.22205 -1.947574,3.18926 -4.862688,6.17085 -8.815024,6.42598 -2.062923,0.80767 -5.674474,-0.91823 -1.819081,-1.44515 3.827464,0.82136 7.146669,-1.6094 8.952097,-4.83409 1.504831,-2.47241 5.060849,-6.89333 0.484484,-8.30882 -6.00415,-1.3501 -12.370146,-2.16991 -18.461341,-0.88518 -5.200601,0.48964 -4.038916,6.42919 -1.289519,9.09189 1.60039,2.5358 4.42734,3.00775 6.976069,3.10913 -2.111508,3.64018 -6.923801,-0.68475 -8.614709,-3.08842 -3.703871,-4.79722 -2.947722,-12.37816 1.933429,-16.10494 3.110956,-2.87936 7.278249,-4.51561 11.49421,-4.73973 m 2.564182,1.27788 c -3.762912,0.087 -7.722802,0.25101 -10.817977,2.69126 -2.054629,1.3445 -7.272114,5.07179 -4.58124,7.32246 3.658248,-1.54713 7.644172,-1.79573 11.574692,-1.23418 3.978539,-0.644 7.483663,0.97257 11.211922,1.83333 3.763272,-2.22826 -1.298074,-7.94672 -4.215457,-9.41851 -0.369286,-0.24456 -0.823247,-0.549 -1.292966,-0.35597" /></g></g><g
           id="g897"
           transform="translate(43.75836,1.4848634)"><g
             id="g899"><path
               id="path901"
               style="fill:none;stroke:#000000;stroke-width:1.26923;stroke-linecap:round;stroke-linejoin:round;stroke-miterlimit:10;stroke-dasharray:none;stroke-opacity:1"
               d="m 58.48056,217.1144 c 3.237005,-2.05489 4.222012,-6.15432 5.438484,-9.5425 0.999233,-5.07991 -0.115266,-10.4327 -2.266492,-15.06144 -0.299561,-0.40094 -0.689903,-0.74405 -1.15409,-0.94138" /></g></g><g
           id="g903"
           inkscape:export-xdpi="96"
           inkscape:export-ydpi="96"
           transform="translate(-67.505816,54.402057)"><g
             id="g905"><path
               id="path907"
               style="fill:none;stroke:#000000;stroke-width:1.26923;stroke-linecap:round;stroke-linejoin:round;stroke-miterlimit:10;stroke-dasharray:none;stroke-opacity:1"
               d="m 94.834287,216.49745 c 1.380378,-5.56332 -2.099313,-11.93832 1.020904,-16.6775 4.662919,-0.6712 9.502439,-0.23935 14.234839,-1.0492 6.61243,0.83337 1.41247,9.79692 3.18846,13.9906 0.0924,6.58279 0.0924,6.58279 -7.97327,5.86845 -2.7573,0.0135 -7.34942,0.4521 -10.112897,0.0717"
               sodipodi:nodetypes="cccccc" /></g></g><g
           id="g909"
           inkscape:export-xdpi="96"
           inkscape:export-ydpi="96"
           transform="translate(-67.505816,54.402057)"><g
             id="g911"><path
               id="path913"
               style="fill:none;stroke:#000000;stroke-width:1.26923;stroke-linecap:round;stroke-linejoin:round;stroke-miterlimit:10;stroke-dasharray:none;stroke-opacity:1"
               d="m 95.545036,218.68111 c -3.517368,0.64627 -8.107882,2.25233 -10.945821,6.49704"
               sodipodi:nodetypes="cc" /></g></g><g
           id="g915"
           inkscape:export-xdpi="96"
           inkscape:export-ydpi="96"
           transform="translate(-67.505816,54.402057)"><g
             id="g917"><path
               id="path919"
               style="fill:none;stroke:#000000;stroke-width:1.26923;stroke-linecap:round;stroke-linejoin:round;stroke-miterlimit:10;stroke-dasharray:none;stroke-opacity:1"
               d="m 84.599215,225.17815 c 1.106807,-5.7843 -1.859096,-17.9214 -0.139043,-21.3214 1.996326,-1.80794 6.981771,-2.61513 9.050326,-4.32787"
               sodipodi:nodetypes="ccc" /></g></g><g
           id="g921"
           inkscape:export-xdpi="96"
           inkscape:export-ydpi="96"
           transform="translate(-67.505816,54.402057)"><g
             id="g923"><path
               id="path925"
               style="fill:none;stroke:#000000;stroke-width:1.26923;stroke-linecap:round;stroke-linejoin:round;stroke-miterlimit:10;stroke-dasharray:none;stroke-opacity:1"
               d="m 84.599215,225.17815 c 6.249568,0.63101 10.630563,0.79771 15.952325,0.84042"
               sodipodi:nodetypes="cc" /></g></g><g
           id="g927"
           inkscape:export-xdpi="96"
           inkscape:export-ydpi="96"
           transform="translate(-67.505816,54.402057)"><g
             id="g929"><path
               id="path931"
               style="fill:none;stroke:#000000;stroke-width:1.26923;stroke-linecap:round;stroke-linejoin:round;stroke-miterlimit:10;stroke-dasharray:none;stroke-opacity:1"
               d="m 100.55154,226.01857 c 3.17689,-2.71453 9.0908,-4.93861 12.81935,-6.67443"
               sodipodi:nodetypes="cc" /></g></g><g
           id="g933"
           transform="translate(15.886455,106.83641)"><g
             id="g935"><path
               id="path937"
               style="fill:#000000;fill-opacity:1;fill-rule:nonzero;stroke:none;stroke-width:0.999997"
               d="m 92.742478,175.183 c -1.780483,-1.61951 -0.803283,-4.4393 0.02873,-6.28701 1.61588,-0.58856 2.900505,2.23619 4.723856,0.66382 4.528456,-2.79314 7.500736,-7.40537 11.628376,-10.68996 1.26802,1.1538 -1.15185,3.40517 -1.9515,4.50584 -2.59795,2.57236 -5.94943,4.22076 -8.566115,6.77071 -2.04155,1.56907 -3.325502,4.15088 -5.863347,5.0366 z" /></g></g><g
           id="g939"
           transform="translate(15.886455,106.83641)"><g
             id="g941"><path
               id="path943"
               style="fill:none;stroke:#000000;stroke-width:1.26923;stroke-linecap:round;stroke-linejoin:round;stroke-miterlimit:10;stroke-dasharray:none;stroke-opacity:1"
               d="m 79.465416,154.16995 c 4.205467,-0.52779 7.459092,-3.64883 11.500857,-4.67086" /></g></g><g
           id="g945"
           transform="translate(15.886455,106.83641)"><g
             id="g947"><path
               id="path949"
               style="fill:none;stroke:#000000;stroke-width:1.26923;stroke-linecap:round;stroke-linejoin:round;stroke-miterlimit:10;stroke-dasharray:none;stroke-opacity:1"
               d="m 92.726334,148.81873 c 7.791566,2.06248 14.728036,6.19602 19.314426,6.77196 1.14894,0.4861 -4.22201,4.40795 -3.6946,5.611"
               sodipodi:nodetypes="ccc" /></g></g><g
           id="g951"
           transform="translate(15.886455,106.83641)"><g
             id="g953"><path
               id="path955"
               style="fill:none;stroke:#000000;stroke-width:1.26923;stroke-linecap:round;stroke-linejoin:round;stroke-miterlimit:10;stroke-dasharray:none;stroke-opacity:1"
               d="m 92.83439,170.57242 c 0.69575,-8.22631 -0.308307,-13.22486 0.06621,-21.46338 l 0.140053,1.0172"
               sodipodi:nodetypes="ccc" /></g></g><g
           id="g957"
           transform="translate(15.886455,106.83641)"><g
             id="g959"><path
               id="path961"
               style="fill:none;stroke:#000000;stroke-width:1.26923;stroke-linecap:round;stroke-linejoin:round;stroke-miterlimit:10;stroke-dasharray:none;stroke-opacity:1"
               d="m 79.156578,153.97488 c 1.702225,3.45524 8.840136,16.76333 11.580566,19.43409"
               sodipodi:nodetypes="cc" /></g></g><g
           id="g963"
           transform="matrix(1.2905681,0,0,1.0791412,-127.79548,50.584854)"><g
             id="g965"><path
               id="path967"
               style="fill:none;stroke:#000000;stroke-width:1.26923;stroke-linecap:round;stroke-linejoin:round;stroke-miterlimit:10;stroke-dasharray:none;stroke-opacity:1"
               d="m 150.64714,202.41951 c -3.80002,1.25513 -9.07729,-0.84873 -6.53705,-5.58373 2.36758,-2.69578 8.2603,2.50068 7.97435,-3.13648 -1.80376,-6.64644 7.85203,-7.38579 6.26284,-1.96703 -0.76409,2.86266 -0.11229,5.04911 3.06368,4.48596 5.95779,0.62083 5.00724,8.92779 -2.6327,8.03812"
               sodipodi:nodetypes="cccccc" /></g></g><g
           id="g969"
           transform="matrix(1.2905681,0,0,1.0791412,-127.79548,50.584854)"><g
             id="g971"><path
               id="path973"
               style="fill:none;stroke:#000000;stroke-width:1.26923;stroke-linecap:round;stroke-linejoin:round;stroke-miterlimit:10;stroke-dasharray:none;stroke-opacity:1"
               d="m 150.81016,203.57854 c 1.4202,3.6128 -2.13161,7.784 3.05174,9.09834 4.9353,0.67389 5.0592,-3.71636 4.35236,-6.98418"
               sodipodi:nodetypes="ccc" /></g></g><g
           id="g975"
           transform="translate(-52.4253,65.531627)"><g
             id="g977"><path
               id="path979"
               style="fill:none;stroke:#000000;stroke-width:1.26923;stroke-linecap:round;stroke-linejoin:round;stroke-miterlimit:10;stroke-dasharray:none;stroke-opacity:1"
               d="m 193.85208,208.09738 c -2.27,-1.55963 -1.84278,-5.77622 -0.46314,-7.70968 2.73514,-1.50332 8.00042,0.31039 10.84405,-0.067 3.7529,0.10352 4.8915,-0.4027 8.60585,0.56955 2.11808,1.67365 1.00539,5.21076 1.14393,7.47646 -2.74639,1.23582 -2.96361,0.81692 -5.95514,0.34362 -3.29791,-1.36505 -9.90591,0.66422 -13.24872,0.13401 -0.84342,-0.23403 -1.57103,-0.82293 -1.98005,-1.59675"
               sodipodi:nodetypes="cccccccc" /></g></g><g
           id="g981"
           transform="translate(-64.348967,58.465137)"><g
             id="g983"><path
               id="path985"
               style="fill:none;stroke:#000000;stroke-width:1.26923;stroke-linecap:round;stroke-linejoin:round;stroke-miterlimit:10;stroke-dasharray:none;stroke-opacity:1"
               d="m 237.67034,212.87269 c -0.13112,-5.68852 1.90872,-14.30762 6.28602,-8.67788 2.64938,4.42275 -2.33214,14.89868 7.52397,13.08908 4.65625,-3.14523 0.27398,-8.113 3.80521,-11.58741 4.7351,-2.33989 3.83891,5.12649 3.50243,7.87424 -0.41939,5.21938 -3.75471,11.39767 -9.27802,12.90335 -6.1378,0.8915 -12.0123,0.0329 -12.06976,-10.28996"
               sodipodi:nodetypes="ccccccc" /></g></g><g
           id="g987"
           transform="translate(158.49994,143.16124)"><g
             id="g989"><path
               id="path991"
               style="fill:none;stroke:#000000;stroke-width:1.26923;stroke-linecap:round;stroke-linejoin:round;stroke-miterlimit:10;stroke-dasharray:none;stroke-opacity:1"
               d="m 218.38331,175.8006 c -3.44533,-4.79967 -2.66168,-9.98384 -5.42393,-15.12888 -1.4294,-7.7172 7.96409,-8.63319 12.93655,-5.66934 6.67079,2.83207 4.60327,11.63632 1.78402,16.58433 -2.24291,3.06857 -6.71935,13.2471 -9.29664,4.21389"
               sodipodi:nodetypes="ccccc" /></g></g><g
           id="g993"
           transform="matrix(0.92655849,0,0,0.90172186,105.81286,132.8463)"><g
             id="g995"><path
               id="path997"
               style="fill:none;stroke:#000000;stroke-width:1.26923;stroke-linecap:round;stroke-linejoin:round;stroke-miterlimit:10;stroke-dasharray:none;stroke-opacity:1"
               d="m 157.70569,173.29607 c -2.53398,1.57463 -5.76638,0.63619 -7.94967,-1.10732 -2.21108,-1.71822 -4.09371,-3.921 -5.35718,-6.42104 -1.20621,-2.94076 -1.34497,-6.80006 0.92483,-9.2741 1.57471,-1.61819 4.14798,-1.57608 6.0788,-0.68464 2.41372,0.82598 5.16433,-0.0783 6.72603,-2.06482 1.83985,-2.15089 2.87864,-4.82413 4.02683,-7.37513 2.34005,-2.88038 6.72299,-2.90227 9.75202,-1.16414 2.76447,1.45001 4.98007,4.40218 4.71055,7.6359 0.66349,5.59356 0.1127,11.7912 -3.46816,16.37209 -2.64094,3.40695 -7.08644,4.71165 -11.22695,4.91103 -1.56768,0.0386 -3.14995,-0.17623 -4.62675,-0.7141" /></g></g><g
           id="g999"
           transform="matrix(0.92655849,0,0,0.90172186,105.81286,132.8463)"><g
             id="g1001"><path
               id="path1003"
               style="fill:none;stroke:#000000;stroke-width:1.26923;stroke-linecap:round;stroke-linejoin:round;stroke-miterlimit:10;stroke-dasharray:none;stroke-opacity:1"
               d="m 154.84975,170.77466 c -1.63762,-0.19086 -3.42865,-1.51097 -3.1078,-3.33818 0.29357,-2.18113 2.69921,-4.3394 4.93411,-3.39166 1.45959,0.83123 2.33218,2.53788 2.69856,4.11853 -0.009,2.19294 -2.87848,2.59583 -4.52487,2.61131 z" /></g></g><g
           id="g1005"
           transform="matrix(0.92655849,0,0,0.90172186,105.81286,132.8463)"><g
             id="g1007"><path
               id="path1009"
               style="fill:none;stroke:#000000;stroke-width:1.26923;stroke-linecap:round;stroke-linejoin:round;stroke-miterlimit:10;stroke-dasharray:none;stroke-opacity:1"
               d="m 166.34135,169.32983 c -1.41368,-0.27339 -2.89303,-1.5727 -2.40529,-3.13715 0.59114,-1.94618 2.65181,-3.68604 4.75877,-3.32618 1.72442,0.52306 1.9844,2.65148 1.94338,4.19299 -0.1757,1.99438 -2.51226,3.86935 -4.35,2.40833" /></g></g><g
           id="g1011"
           transform="matrix(0.92655849,0,0,0.90172186,105.81286,132.8463)"><g
             id="g1013"><path
               id="path1015"
               style="fill:none;stroke:#000000;stroke-width:1.26923;stroke-linecap:round;stroke-linejoin:round;stroke-miterlimit:10;stroke-dasharray:none;stroke-opacity:1"
               d="m 170.25949,161.44173 c -1.60109,-0.38112 -3.13948,-2.24754 -1.87248,-3.78427 1.08117,-1.44042 3.28495,-2.56343 4.99277,-1.5685 1.34114,1.11838 1.02159,3.19939 0.49713,4.65582 -0.55717,1.1786 -2.28787,1.61398 -3.12065,0.46123" /></g></g><g
           id="g1017"
           transform="matrix(0.92655849,0,0,0.90172186,105.81286,132.8463)"><g
             id="g1019"><path
               id="path1021"
               style="fill:none;stroke:#000000;stroke-width:1.26923;stroke-linecap:round;stroke-linejoin:round;stroke-miterlimit:10;stroke-dasharray:none;stroke-opacity:1"
               d="m 168.21936,151.96341 c -2.07024,-0.42332 -2.48482,-3.14699 -0.80531,-4.34823 1.27161,-1.80216 3.92289,-0.72713 3.28881,1.44387 0.0988,1.19405 -1.42821,2.23701 -2.47567,1.57651" /></g></g><g
           id="g1023"
           transform="matrix(1.1147094,0,0,0.94316885,-103.75845,76.556812)"><g
             id="g1025"><path
               id="path1027"
               style="fill:none;stroke:#000000;stroke-width:1.26923;stroke-linecap:round;stroke-linejoin:round;stroke-miterlimit:10;stroke-dasharray:none;stroke-opacity:1"
               d="m 278.30319,218.80098 c -0.49797,3.89516 4.46094,8.37958 6.39307,3.74239 0.62361,-3.42126 -0.39206,-7.57622 0.075,-11.03643 -1.09569,-7.88402 5.01955,-9.11602 7.03559,-4.22604 0.96495,4.27155 0.68758,9.16314 1.23441,13.46388 0.45117,3.43463 4.52319,2.821 3.97069,-0.5667 -0.0972,-4.37091 0.14624,-9.18749 -0.16625,-13.56841"
               sodipodi:nodetypes="ccccccc" /></g></g><g
           id="g1029"
           transform="matrix(1.1147094,0,0,0.94316885,-103.75845,76.556812)"><g
             id="g1031"><path
               id="path1033"
               style="fill:none;stroke:#000000;stroke-width:1.26923;stroke-linecap:round;stroke-linejoin:round;stroke-miterlimit:10;stroke-dasharray:none;stroke-opacity:1"
               d="m 277.45749,217.45699 c -1.9168,-7.24463 -1.83829,-14.52699 2.84311,-20.16912 5.45939,-5.10042 18.8221,-0.41394 16.54506,6.98996"
               sodipodi:nodetypes="ccc" /></g></g><g
           id="g1035"
           transform="translate(158.49994,143.16124)"><g
             id="g1037"><path
               id="path1039"
               style="fill:none;stroke:#000000;stroke-width:1.26923;stroke-linecap:round;stroke-linejoin:round;stroke-miterlimit:10;stroke-dasharray:none;stroke-opacity:1"
               d="m 271.49554,176.31677 c -6.10732,0.89503 -1.46569,-9.67074 2.604,-4.58287 1.89939,2.31042 -0.66037,7.05723 -3.33527,3.80401" /></g></g><g
           id="g1041"
           transform="translate(158.49994,143.16124)"><g
             id="g1043"><path
               id="path1045"
               style="fill:none;stroke:#000000;stroke-width:1.26923;stroke-linecap:round;stroke-linejoin:round;stroke-miterlimit:10;stroke-dasharray:none;stroke-opacity:1"
               d="m 271.51175,170.18144 c 0.37492,-4.03072 0.90578,-11.42441 0.92333,-13.4767 l -0.0125,0.16124" /></g></g><g
           id="g1047"
           transform="translate(158.49994,143.16124)"><g
             id="g1049"><path
               id="path1051"
               style="fill:none;stroke:#000000;stroke-width:1.26923;stroke-linecap:round;stroke-linejoin:round;stroke-miterlimit:10;stroke-dasharray:none;stroke-opacity:1"
               d="m 280.40039,172.7861 c 0.50927,-5.36016 -0.091,-10.76025 0.47547,-16.11996 0.5681,-0.56649 -0.47086,-1.0653 -0.49525,-0.41101" /></g></g><g
           id="g1053"
           transform="translate(158.49994,143.16124)"><g
             id="g1055"><path
               id="path1057"
               style="fill:none;stroke:#000000;stroke-width:1.26923;stroke-linecap:round;stroke-linejoin:round;stroke-miterlimit:10;stroke-dasharray:none;stroke-opacity:1"
               d="m 281.52805,155.74863 c -5.13917,-1.01009 1.21208,-8.60185 3.12224,-3.18 1.25745,2.22362 -1.1451,4.80573 -2.7176,4.06184" /></g></g><g
           id="g1059"
           transform="translate(158.49994,143.16124)"><g
             id="g1061"><path
               id="path1063"
               style="fill:none;stroke:#000000;stroke-width:1.26923;stroke-linecap:round;stroke-linejoin:round;stroke-miterlimit:10;stroke-dasharray:none;stroke-opacity:1"
               d="m 289.90463,176.25409 c -3.07476,0.13137 -2.48817,-4.79501 0.12868,-5.12935 2.72569,-0.82656 5.76309,2.9638 3.62281,5.22371 -1.3301,1.34972 -3.31656,-0.0539 -4.17295,-1.24625" /></g></g><g
           id="g1065"
           transform="translate(158.49994,143.16124)"><g
             id="g1067"><path
               id="path1069"
               style="fill:none;stroke:#000000;stroke-width:1.26923;stroke-linecap:round;stroke-linejoin:round;stroke-miterlimit:10;stroke-dasharray:none;stroke-opacity:1"
               d="m 290.33932,171.21851 c 0.70862,-3.16765 0.64791,-6.86464 0.97363,-9.79976" /></g></g><g
           id="g1071"
           transform="translate(188.06063,157.08823)"><g
             id="g1073"><path
               id="path1075"
               style="fill:none;stroke:#000000;stroke-width:1.26923;stroke-linecap:round;stroke-linejoin:round;stroke-miterlimit:10;stroke-dasharray:none;stroke-opacity:1"
               d="m 102.98924,119.04366 c -3.147964,0.83578 -4.218797,-4.53631 -1.21803,-5.35616 3.27638,-0.94954 5.41276,4.56442 2.06189,5.77752 l -0.48708,0.0701 -0.51986,-0.066" /></g></g><g
           id="g1077"
           transform="translate(188.06063,157.08823)"><g
             id="g1079"><path
               id="path1081"
               style="fill:none;stroke:#000000;stroke-width:1.26923;stroke-linecap:round;stroke-linejoin:round;stroke-miterlimit:10;stroke-dasharray:none;stroke-opacity:1"
               d="m 102.23273,120.6869 c 0.55313,3.3427 -0.14247,6.7266 0.1146,10.08347" /></g></g><g
           id="g1083"
           transform="translate(188.06063,157.08823)"><g
             id="g1085"><path
               id="path1087"
               style="fill:none;stroke:#000000;stroke-width:1.26923;stroke-linecap:round;stroke-linejoin:round;stroke-miterlimit:10;stroke-dasharray:none;stroke-opacity:1"
               d="m 102.11032,113.68928 c 0.4043,-2.87241 -0.84182,-5.82994 0.19665,-8.63713" /></g></g></g></g></g></svg>
