<?xml version="1.0" encoding="UTF-8"?>
<svg width="48" height="48" version="1.1" viewBox="0 0 48 48" xml:space="preserve" xmlns="http://www.w3.org/2000/svg" xmlns:cc="http://creativecommons.org/ns#" xmlns:dc="http://purl.org/dc/elements/1.1/" xmlns:rdf="http://www.w3.org/1999/02/22-rdf-syntax-ns#"><metadata><rdf:RDF><cc:Work rdf:about=""><dc:format>image/svg+xml</dc:format><dc:type rdf:resource="http://purl.org/dc/dcmitype/StillImage"/><dc:title/></cc:Work></rdf:RDF></metadata><g transform="matrix(1.3333 0 0 -1.3333 -59.799 278.76)"><g transform="matrix(.31718 0 0 -.31718 0 594)"><g transform="matrix(3.1528 0 0 -3.1528 -121.15 1928.2)"><g transform="translate(-146.16 -5.9574)"><path d="m237.67 212.87c-0.13112-5.6885 1.9087-14.308 6.286-8.6779 2.6494 4.4228-2.3321 14.899 7.524 13.089 4.6562-3.1452 0.27398-8.113 3.8052-11.587 4.7351-2.3399 3.8389 5.1265 3.5024 7.8742-0.41939 5.2194-3.7547 11.398-9.278 12.903-6.1378 0.8915-12.012 0.0329-12.07-10.29" fill="none" stroke="#000" stroke-linecap="round" stroke-linejoin="round" stroke-miterlimit="10" stroke-width="1.2692"/></g></g></g></g></svg>
