<?xml version="1.0" encoding="UTF-8"?>
<svg width="48" height="48" version="1.1" viewBox="0 0 48 48" xml:space="preserve" xmlns="http://www.w3.org/2000/svg" xmlns:cc="http://creativecommons.org/ns#" xmlns:dc="http://purl.org/dc/elements/1.1/" xmlns:rdf="http://www.w3.org/1999/02/22-rdf-syntax-ns#"><metadata><rdf:RDF><cc:Work rdf:about=""><dc:format>image/svg+xml</dc:format><dc:type rdf:resource="http://purl.org/dc/dcmitype/StillImage"/><dc:title/></cc:Work></rdf:RDF></metadata><g transform="matrix(1.3333 0 0 -1.3333 -59.799 278.76)"><g transform="matrix(.31718 0 0 -.31718 0 594)"><g transform="matrix(3.1528 0 0 -3.1528 -121.15 1928.2)"><g transform="translate(-1.9233 92.24)"><path d="m102.99 119.04c-3.148 0.83578-4.2188-4.5363-1.218-5.3562 3.2764-0.94954 5.4128 4.5644 2.0619 5.7775l-0.48708 0.0701-0.51986-0.066" fill="none" stroke="#000" stroke-linecap="round" stroke-linejoin="round" stroke-miterlimit="10" stroke-width="1.2692"/></g><g transform="translate(-1.9233 92.24)"><path d="m102.23 120.69c0.55313 3.3427-0.14247 6.7266 0.1146 10.083" fill="none" stroke="#000" stroke-linecap="round" stroke-linejoin="round" stroke-miterlimit="10" stroke-width="1.2692"/></g><g transform="translate(-1.9233 92.24)"><path d="m102.11 113.69c0.4043-2.8724-0.84182-5.8299 0.19665-8.6371" fill="none" stroke="#000" stroke-linecap="round" stroke-linejoin="round" stroke-miterlimit="10" stroke-width="1.2692"/></g></g></g></g></svg>
