<?xml version="1.0" encoding="UTF-8"?>
<svg width="48" height="48" version="1.1" viewBox="0 0 48 48" xml:space="preserve" xmlns="http://www.w3.org/2000/svg" xmlns:cc="http://creativecommons.org/ns#" xmlns:dc="http://purl.org/dc/elements/1.1/" xmlns:rdf="http://www.w3.org/1999/02/22-rdf-syntax-ns#"><metadata><rdf:RDF><cc:Work rdf:about=""><dc:format>image/svg+xml</dc:format><dc:type rdf:resource="http://purl.org/dc/dcmitype/StillImage"/><dc:title/></cc:Work></rdf:RDF></metadata><g transform="matrix(1.3333 0 0 -1.3333 -59.799 278.76)"><g transform="matrix(.31718 0 0 -.31718 0 594)"><g transform="matrix(3.1528 0 0 -3.1528 -121.15 1928.2)"><g transform="matrix(1.2906 0 0 1.0791 -98.406 -7.0035)"><path d="m150.65 202.42c-3.8 1.2551-9.0773-0.84873-6.537-5.5837 2.3676-2.6958 8.2603 2.5007 7.9744-3.1365-1.8038-6.6464 7.852-7.3858 6.2628-1.967-0.76409 2.8627-0.11229 5.0491 3.0637 4.486 5.9578 0.62083 5.0072 8.9278-2.6327 8.0381" fill="none" stroke="#000" stroke-linecap="round" stroke-linejoin="round" stroke-miterlimit="10" stroke-width="1.2692"/></g><g transform="matrix(1.2906 0 0 1.0791 -98.406 -7.0035)"><path d="m150.81 203.58c1.4202 3.6128-2.1316 7.784 3.0517 9.0983 4.9353 0.67389 5.0592-3.7164 4.3524-6.9842" fill="none" stroke="#000" stroke-linecap="round" stroke-linejoin="round" stroke-miterlimit="10" stroke-width="1.2692"/></g></g></g></g></svg>
