<?xml version="1.0" encoding="UTF-8"?>
<svg width="48" height="48" version="1.1" viewBox="0 0 48 48" xml:space="preserve" xmlns="http://www.w3.org/2000/svg" xmlns:cc="http://creativecommons.org/ns#" xmlns:dc="http://purl.org/dc/elements/1.1/" xmlns:rdf="http://www.w3.org/1999/02/22-rdf-syntax-ns#"><metadata><rdf:RDF><cc:Work rdf:about=""><dc:format>image/svg+xml</dc:format><dc:type rdf:resource="http://purl.org/dc/dcmitype/StillImage"/><dc:title/></cc:Work></rdf:RDF></metadata><g transform="matrix(1.3333 0 0 -1.3333 -59.799 278.76)"><g transform="matrix(.31718 0 0 -.31718 0 594)"><g transform="matrix(3.1528 0 0 -3.1528 -121.15 1928.2)"><g transform="translate(5.9574 46.865)"><path d="m92.742 175.18c-1.7805-1.6195-0.80328-4.4393 0.02873-6.287 1.6159-0.58856 2.9005 2.2362 4.7239 0.66382 4.5285-2.7931 7.5007-7.4054 11.628-10.69 1.268 1.1538-1.1518 3.4052-1.9515 4.5058-2.598 2.5724-5.9494 4.2208-8.5661 6.7707-2.0416 1.5691-3.3255 4.1509-5.8633 5.0366z"/></g><g transform="translate(5.9574 46.865)"><path d="m79.465 154.17c4.2055-0.52779 7.4591-3.6488 11.501-4.6709" fill="none" stroke="#000" stroke-linecap="round" stroke-linejoin="round" stroke-miterlimit="10" stroke-width="1.2692"/></g><g transform="translate(5.9574 46.865)"><path d="m92.726 148.82c7.7916 2.0625 14.728 6.196 19.314 6.772 1.1489 0.4861-4.222 4.408-3.6946 5.611" fill="none" stroke="#000" stroke-linecap="round" stroke-linejoin="round" stroke-miterlimit="10" stroke-width="1.2692"/></g><g transform="translate(5.9574 46.865)"><path d="m92.834 170.57c0.69575-8.2263-0.30831-13.225 0.06621-21.463l0.14005 1.0172" fill="none" stroke="#000" stroke-linecap="round" stroke-linejoin="round" stroke-miterlimit="10" stroke-width="1.2692"/></g><g transform="translate(5.9574 46.865)"><path d="m79.157 153.97c1.7022 3.4552 8.8401 16.763 11.581 19.434" fill="none" stroke="#000" stroke-linecap="round" stroke-linejoin="round" stroke-miterlimit="10" stroke-width="1.2692"/></g></g></g></g></svg>
