<?xml version="1.0" encoding="UTF-8"?>
<svg width="48" height="48" version="1.1" viewBox="0 0 48 48" xml:space="preserve" xmlns="http://www.w3.org/2000/svg" xmlns:cc="http://creativecommons.org/ns#" xmlns:dc="http://purl.org/dc/elements/1.1/" xmlns:rdf="http://www.w3.org/1999/02/22-rdf-syntax-ns#"><metadata><rdf:RDF><cc:Work rdf:about=""><dc:format>image/svg+xml</dc:format><dc:type rdf:resource="http://purl.org/dc/dcmitype/StillImage"/><dc:title/></cc:Work></rdf:RDF></metadata><g transform="matrix(1.3333 0 0 -1.3333 -59.799 278.76)"><g transform="matrix(.31718 0 0 -.31718 0 594)"><g transform="matrix(3.1528 0 0 -3.1528 -121.15 1928.2)"><g transform="translate(44.691 3.1949)"><path d="m58.377 192.12c5.3685-0.63551 10.535 3.5133 12.143 8.4555 0.92626 4.2886-1.1167 8.5513-3.1465 12.222-1.9476 3.1893-4.8627 6.1708-8.815 6.426-2.0629 0.80767-5.6745-0.91823-1.8191-1.4452 3.8275 0.82136 7.1467-1.6094 8.9521-4.8341 1.5048-2.4724 5.0608-6.8933 0.48448-8.3088-6.0042-1.3501-12.37-2.1699-18.461-0.88518-5.2006 0.48964-4.0389 6.4292-1.2895 9.0919 1.6004 2.5358 4.4273 3.0078 6.9761 3.1091-2.1115 3.6402-6.9238-0.68475-8.6147-3.0884-3.7039-4.7972-2.9477-12.378 1.9334-16.105 3.111-2.8794 7.2782-4.5156 11.494-4.7397m2.5642 1.2779c-3.7629 0.087-7.7228 0.25101-10.818 2.6913-2.0546 1.3445-7.2721 5.0718-4.5812 7.3225 3.6582-1.5471 7.6442-1.7957 11.575-1.2342 3.9785-0.644 7.4837 0.97257 11.212 1.8333 3.7633-2.2283-1.2981-7.9467-4.2155-9.4185-0.36929-0.24456-0.82325-0.549-1.293-0.35597"/></g><g transform="translate(43.758 1.4849)"><path d="m58.481 217.11c3.237-2.0549 4.222-6.1543 5.4385-9.5425 0.99923-5.0799-0.11527-10.433-2.2665-15.061-0.29956-0.40094-0.6899-0.74405-1.1541-0.94138" fill="none" stroke="#000" stroke-linecap="round" stroke-linejoin="round" stroke-miterlimit="10" stroke-width="1.2692"/></g></g></g></g></svg>
