<?xml version="1.0" encoding="UTF-8"?>
<svg width="48" height="48" version="1.1" viewBox="0 0 48 48" xml:space="preserve" xmlns="http://www.w3.org/2000/svg" xmlns:cc="http://creativecommons.org/ns#" xmlns:dc="http://purl.org/dc/elements/1.1/" xmlns:rdf="http://www.w3.org/1999/02/22-rdf-syntax-ns#"><metadata><rdf:RDF><cc:Work rdf:about=""><dc:format>image/svg+xml</dc:format><dc:type rdf:resource="http://purl.org/dc/dcmitype/StillImage"/><dc:title/></cc:Work></rdf:RDF></metadata><g transform="matrix(1.3333 0 0 -1.3333 -59.799 278.76)"><g transform="matrix(.31718 0 0 -.31718 0 594)"><g transform="matrix(3.1528 0 0 -3.1528 -121.15 1928.2)"><g transform="matrix(1.1147 0 0 .94317 -219.31 10.6)"><path d="m278.3 218.8c-0.49797 3.8952 4.4609 8.3796 6.3931 3.7424 0.62361-3.4213-0.39206-7.5762 0.075-11.036-1.0957-7.884 5.0196-9.116 7.0356-4.226 0.96495 4.2716 0.68758 9.1631 1.2344 13.464 0.45117 3.4346 4.5232 2.821 3.9707-0.5667-0.0972-4.3709 0.14624-9.1875-0.16625-13.568" fill="none" stroke="#000" stroke-linecap="round" stroke-linejoin="round" stroke-miterlimit="10" stroke-width="1.2692"/></g><g transform="matrix(1.1147 0 0 .94317 -219.31 10.6)"><path d="m277.46 217.46c-1.9168-7.2446-1.8383-14.527 2.8431-20.169 5.4594-5.1004 18.822-0.41394 16.545 6.99" fill="none" stroke="#000" stroke-linecap="round" stroke-linejoin="round" stroke-miterlimit="10" stroke-width="1.2692"/></g></g></g></g></svg>
