<?xml version="1.0" encoding="UTF-8"?>
<svg width="48" height="48" version="1.1" viewBox="0 0 48 48" xml:space="preserve" xmlns="http://www.w3.org/2000/svg" xmlns:cc="http://creativecommons.org/ns#" xmlns:dc="http://purl.org/dc/elements/1.1/" xmlns:rdf="http://www.w3.org/1999/02/22-rdf-syntax-ns#"><metadata><rdf:RDF><cc:Work rdf:about=""><dc:format>image/svg+xml</dc:format><dc:type rdf:resource="http://purl.org/dc/dcmitype/StillImage"/><dc:title/></cc:Work></rdf:RDF></metadata><g transform="matrix(1.3333 0 0 -1.3333 -59.799 278.76)"><g transform="matrix(.31718 0 0 -.31718 0 594)"><g transform="matrix(3.1528 0 0 -3.1528 -121.15 1928.2)"><g transform="matrix(.92656 0 0 .90172 -47.288 65.74)"><path d="m157.71 173.3c-2.534 1.5746-5.7664 0.63619-7.9497-1.1073-2.2111-1.7182-4.0937-3.921-5.3572-6.421-1.2062-2.9408-1.345-6.8001 0.92483-9.2741 1.5747-1.6182 4.148-1.5761 6.0788-0.68464 2.4137 0.82598 5.1643-0.0783 6.726-2.0648 1.8398-2.1509 2.8786-4.8241 4.0268-7.3751 2.34-2.8804 6.723-2.9023 9.752-1.1641 2.7645 1.45 4.9801 4.4022 4.7106 7.6359 0.66349 5.5936 0.1127 11.791-3.4682 16.372-2.6409 3.407-7.0864 4.7116-11.227 4.911-1.5677 0.0386-3.15-0.17623-4.6268-0.7141" fill="none" stroke="#000" stroke-linecap="round" stroke-linejoin="round" stroke-miterlimit="10" stroke-width="1.2692"/></g><g transform="matrix(.92656 0 0 .90172 -47.288 65.74)"><path d="m154.85 170.77c-1.6376-0.19086-3.4286-1.511-3.1078-3.3382 0.29357-2.1811 2.6992-4.3394 4.9341-3.3917 1.4596 0.83123 2.3322 2.5379 2.6986 4.1185-9e-3 2.1929-2.8785 2.5958-4.5249 2.6113z" fill="none" stroke="#000" stroke-linecap="round" stroke-linejoin="round" stroke-miterlimit="10" stroke-width="1.2692"/></g><g transform="matrix(.92656 0 0 .90172 -47.288 65.74)"><path d="m166.34 169.33c-1.4137-0.27339-2.893-1.5727-2.4053-3.1372 0.59114-1.9462 2.6518-3.686 4.7588-3.3262 1.7244 0.52306 1.9844 2.6515 1.9434 4.193-0.1757 1.9944-2.5123 3.8694-4.35 2.4083" fill="none" stroke="#000" stroke-linecap="round" stroke-linejoin="round" stroke-miterlimit="10" stroke-width="1.2692"/></g><g transform="matrix(.92656 0 0 .90172 -47.288 65.74)"><path d="m170.26 161.44c-1.6011-0.38112-3.1395-2.2475-1.8725-3.7843 1.0812-1.4404 3.285-2.5634 4.9928-1.5685 1.3411 1.1184 1.0216 3.1994 0.49713 4.6558-0.55717 1.1786-2.2879 1.614-3.1206 0.46123" fill="none" stroke="#000" stroke-linecap="round" stroke-linejoin="round" stroke-miterlimit="10" stroke-width="1.2692"/></g><g transform="matrix(.92656 0 0 .90172 -47.288 65.74)"><path d="m168.22 151.96c-2.0702-0.42332-2.4848-3.147-0.80531-4.3482 1.2716-1.8022 3.9229-0.72713 3.2888 1.4439 0.0988 1.194-1.4282 2.237-2.4757 1.5765" fill="none" stroke="#000" stroke-linecap="round" stroke-linejoin="round" stroke-miterlimit="10" stroke-width="1.2692"/></g></g></g></g></svg>
