<?xml version="1.0" encoding="UTF-8"?>
<svg width="48" height="48" version="1.1" viewBox="0 0 48 48" xml:space="preserve" xmlns="http://www.w3.org/2000/svg" xmlns:cc="http://creativecommons.org/ns#" xmlns:dc="http://purl.org/dc/elements/1.1/" xmlns:rdf="http://www.w3.org/1999/02/22-rdf-syntax-ns#"><metadata><rdf:RDF><cc:Work rdf:about=""><dc:format>image/svg+xml</dc:format><dc:type rdf:resource="http://purl.org/dc/dcmitype/StillImage"/><dc:title/></cc:Work></rdf:RDF></metadata><g transform="matrix(1.3333 0 0 -1.3333 -59.799 278.76)"><g transform="matrix(.31718 0 0 -.31718 0 594)"><g transform="matrix(3.1528 0 0 -3.1528 -121.15 1928.2)"><g transform="translate(-101.67 3.9716)"><path d="m193.85 208.1c-2.27-1.5596-1.8428-5.7762-0.46314-7.7097 2.7351-1.5033 8.0004 0.31039 10.844-0.067 3.7529 0.10352 4.8915-0.4027 8.6058 0.56955 2.1181 1.6736 1.0054 5.2108 1.1439 7.4765-2.7464 1.2358-2.9636 0.81692-5.9551 0.34362-3.2979-1.365-9.9059 0.66422-13.249 0.13401-0.84342-0.23403-1.571-0.82293-1.98-1.5968" fill="none" stroke="#000" stroke-linecap="round" stroke-linejoin="round" stroke-miterlimit="10" stroke-width="1.2692"/></g></g></g></g></svg>
